<mxfile host="app.diagrams.net" modified="2022-10-31T13:08:13.412Z" agent="5.0 (Windows NT 10.0; Win64; x64) AppleWebKit/537.36 (KHTML, like Gecko) Chrome/106.0.0.0 Safari/537.36" etag="C2OW34Lf9M986ywwel50" version="20.5.1" type="github">
  <diagram id="dsU_ii47a0S2btjW8iKH" name="Страница 1">
    <mxGraphModel dx="1487" dy="815" grid="1" gridSize="10" guides="1" tooltips="1" connect="1" arrows="1" fold="1" page="1" pageScale="1" pageWidth="827" pageHeight="1169" math="0" shadow="0">
      <root>
        <mxCell id="0" />
        <mxCell id="1" parent="0" />
        <mxCell id="BPP2ajkxVIenSYZT_UOM-1" value="DocRequestTypeList:DB" style="shape=umlLifeline;perimeter=lifelinePerimeter;whiteSpace=wrap;html=1;container=1;collapsible=0;recursiveResize=0;outlineConnect=0;" vertex="1" parent="1">
          <mxGeometry x="280" y="40" width="160" height="1120" as="geometry" />
        </mxCell>
      </root>
    </mxGraphModel>
  </diagram>
</mxfile>
